<svg width="19" height="21" viewBox="0 0 19 21" fill="none" xmlns="http://www.w3.org/2000/svg">
<path fill-rule="evenodd" clip-rule="evenodd" d="M6.5 1C6.5 0.585786 6.16421 0.25 5.75 0.25C5.33579 0.25 5 0.585786 5 1V2.5H4.75C2.54086 2.5 0.75 4.29086 0.75 6.5V17C0.75 19.2091 2.54086 21 4.75 21H14.75C16.9591 21 18.75 19.2091 18.75 17V6.5C18.75 4.29086 16.9591 2.5 14.75 2.5H14.5V1C14.5 0.585786 14.1642 0.25 13.75 0.25C13.3358 0.25 13 0.585786 13 1V2.5H6.5V1ZM5.75 11.25C5.33579 11.25 5 11.5858 5 12C5 12.4142 5.33579 12.75 5.75 12.75H13.75C14.1642 12.75 14.5 12.4142 14.5 12C14.5 11.5858 14.1642 11.25 13.75 11.25H5.75ZM5 8C5 7.58579 5.33579 7.25 5.75 7.25H13.75C14.1642 7.25 14.5 7.58579 14.5 8C14.5 8.41421 14.1642 8.75 13.75 8.75H5.75C5.33579 8.75 5 8.41421 5 8ZM5.75 15.25C5.33579 15.25 5 15.5858 5 16C5 16.4142 5.33579 16.75 5.75 16.75H9.75C10.1642 16.75 10.5 16.4142 10.5 16C10.5 15.5858 10.1642 15.25 9.75 15.25H5.75Z" fill="white"/>
</svg>
