<svg width="19" height="18" viewBox="0 0 19 18" fill="none" xmlns="http://www.w3.org/2000/svg">
<path fill-rule="evenodd" clip-rule="evenodd" d="M7.5 8C9.70914 8 11.5 6.20914 11.5 4C11.5 1.79086 9.70914 0 7.5 0C5.29086 0 3.5 1.79086 3.5 4C3.5 6.20914 5.29086 8 7.5 8ZM7.5 18C11.366 18 14.5 16.2091 14.5 14C14.5 11.7909 11.366 10 7.5 10C3.63401 10 0.5 11.7909 0.5 14C0.5 16.2091 3.63401 18 7.5 18ZM11.4614 7.81669C12.4141 6.82774 13 5.48294 13 4.0013C13 3.29671 12.8675 2.62306 12.6261 2.00391C14.2244 2.07002 15.4999 3.3867 15.4999 5.0013C15.4999 6.65816 14.1568 8.0013 12.4999 8.0013C12.1349 8.0013 11.785 7.93609 11.4614 7.81669ZM15.9999 13.9987C15.9999 14.5375 15.8802 15.0582 15.657 15.5503C17.3634 15.0214 18.4999 14.0764 18.4999 12.9987C18.4999 11.4925 16.2799 10.2456 13.3867 10.0312C14.9974 11.0321 15.9999 12.4397 15.9999 13.9987Z" fill="white"/>
</svg>
