<svg width="20" height="20" viewBox="0 0 20 20" fill="none" xmlns="http://www.w3.org/2000/svg">
<path fill-rule="evenodd" clip-rule="evenodd" d="M18.3607 16.0108C18.3607 18.214 16.4891 20 14.1804 20H5.81965C3.5109 20 1.6393 18.214 1.6393 16.0108V11.133C1.6393 10.4248 1.34447 9.74559 0.819688 9.2448C-0.396195 8.0845 -0.23813 6.16205 1.15251 5.19692L7.54124 0.762995C9.00708 -0.254332 10.9929 -0.254332 12.4588 0.762995L18.8475 5.19691C20.2381 6.16205 20.3962 8.0845 19.1803 9.2448C18.6555 9.74559 18.3607 10.4248 18.3607 11.133V16.0108ZM10 16C11.1046 16 12 15.1046 12 14C12 12.8954 11.1046 12 10 12C8.89543 12 8 12.8954 8 14C8 15.1046 8.89543 16 10 16Z" fill="white"/>
</svg>
