<svg width="32" height="32" viewBox="0 0 32 32" fill="none" xmlns="http://www.w3.org/2000/svg">
<rect width="32" height="32" rx="8" fill="#F7F7F8"/>
<path d="M16.7844 10.3117C16.7844 10.3117 16.7844 11.9463 18.419 13.581C20.0537 15.2156 21.6883 15.2156 21.6883 15.2156M10.3196 22.9881L13.7523 22.4977C14.2475 22.4269 14.7064 22.1975 15.06 21.8438L23.3229 13.581C24.2257 12.6782 24.2257 11.2145 23.3229 10.3117L21.6883 8.67708C20.7855 7.77431 19.3218 7.77431 18.419 8.67708L10.1562 16.94C9.80248 17.2936 9.57305 17.7525 9.50231 18.2477L9.01193 21.6804C8.90295 22.4432 9.5568 23.097 10.3196 22.9881Z" stroke="#9CA4AB" stroke-width="1.5" stroke-linecap="round"/>
</svg>
