<svg width="32" height="32" viewBox="0 0 32 32" fill="none" xmlns="http://www.w3.org/2000/svg">
<rect width="32" height="32" rx="8" fill="#F7F7F8"/>
<path d="M25 23V21.3541C25 20.5363 24.5021 19.8008 23.7428 19.4971L21.7086 18.6835C20.7429 18.2971 19.6422 18.7156 19.177 19.646L19 20C19 20 16.5 19.5 14.5 17.5C12.5 15.5 12 13 12 13L12.354 12.823C13.2844 12.3578 13.7029 11.2571 13.3165 10.2914L12.5029 8.25722C12.1992 7.4979 11.4637 7 10.6459 7H9C7.89543 7 7 7.89543 7 9C7 17.8366 14.1634 25 23 25C24.1046 25 25 24.1046 25 23Z" stroke="#C0C0C0" stroke-width="1.5" stroke-linejoin="round"/>
</svg>
