<svg width="21" height="14" viewBox="0 0 21 14" fill="none" xmlns="http://www.w3.org/2000/svg">
<path fill-rule="evenodd" clip-rule="evenodd" d="M10.25 6C11.9069 6 13.25 4.65685 13.25 3C13.25 1.34315 11.9069 0 10.25 0C8.59315 0 7.25 1.34315 7.25 3C7.25 4.65685 8.59315 6 10.25 6ZM10.25 14C13.5637 14 16.25 12.6569 16.25 11C16.25 9.34315 13.5637 8 10.25 8C6.93629 8 4.25 9.34315 4.25 11C4.25 12.6569 6.93629 14 10.25 14ZM4.63165 8.01953C2.16199 8.17183 0.25 9.22457 0.25 10.5006C0.25 11.5526 1.54949 12.4528 3.38963 12.8218C2.97843 12.265 2.75 11.6488 2.75 11.0006C2.75 9.85718 3.46076 8.81337 4.63165 8.01953ZM17.7501 11.0006C17.7501 11.6488 17.5216 12.265 17.1104 12.8218C18.9506 12.4528 20.2501 11.5526 20.2501 10.5006C20.2501 9.22458 18.3381 8.17183 15.8684 8.01953C17.0393 8.81337 17.7501 9.85718 17.7501 11.0006ZM13.9683 5.53539C14.4615 4.8134 14.75 3.94039 14.75 3C14.75 2.68794 14.7182 2.3833 14.6577 2.08914C14.8449 2.0312 15.0438 2 15.25 2C16.3545 2 17.25 2.89543 17.25 4C17.25 5.10457 16.3545 6 15.25 6C14.7623 6 14.3153 5.82544 13.9683 5.53539ZM5.25 2C5.45619 2 5.65509 2.0312 5.84223 2.08914C5.78176 2.3833 5.75 2.68794 5.75 3C5.75 3.94039 6.03845 4.8134 6.53171 5.53539C6.18462 5.82544 5.7377 6 5.25 6C4.14543 6 3.25 5.10457 3.25 4C3.25 2.89543 4.14543 2 5.25 2Z" fill="white"/>
</svg>
