<svg width="32" height="32" viewBox="0 0 32 32" fill="none" xmlns="http://www.w3.org/2000/svg">
<rect width="32" height="32" rx="8" fill="#C0C0C0" fill-opacity="0.2"/>
<path d="M24 9V14.5" stroke="#C0C0C0" stroke-width="1.5" stroke-linecap="round"/>
<path d="M20.75 11V10.25H19.25V11H20.75ZM12.75 11V10.25H11.25V11H12.75ZM16 6L16.2633 5.29775C16.0936 5.23408 15.9064 5.23408 15.7367 5.29775L16 6ZM8 9L7.73666 8.29775C7.44393 8.40753 7.25 8.68737 7.25 9C7.25 9.31263 7.44393 9.59247 7.73666 9.70225L8 9ZM16 12L15.7367 12.7022C15.9064 12.7659 16.0936 12.7659 16.2633 12.7022L16 12ZM24 9L24.2633 9.70225C24.5561 9.59247 24.75 9.31263 24.75 9C24.75 8.68737 24.5561 8.40753 24.2633 8.29775L24 9ZM16.711 21.0059L16.1778 20.4785V20.4785L16.711 21.0059ZM18.2996 19.3996L18.8328 19.927L18.8328 19.927L18.2996 19.3996ZM19.238 19.1441L19.4496 18.4246L19.238 19.1441ZM13.7004 19.3996L14.2337 18.8722L13.7004 19.3996ZM15.289 21.0059L15.8222 20.4785L15.289 21.0059ZM12.762 19.1441L12.5504 18.4246L12.762 19.1441ZM23.25 26C23.25 26.4142 23.5858 26.75 24 26.75C24.4142 26.75 24.75 26.4142 24.75 26H23.25ZM7.25 26C7.25 26.4142 7.58579 26.75 8 26.75C8.41421 26.75 8.75 26.4142 8.75 26H7.25ZM19.25 11V13H20.75V11H19.25ZM12.75 13V11H11.25V13H12.75ZM16 16.25C14.2051 16.25 12.75 14.7949 12.75 13H11.25C11.25 15.6234 13.3766 17.75 16 17.75V16.25ZM19.25 13C19.25 14.7949 17.7949 16.25 16 16.25V17.75C18.6234 17.75 20.75 15.6234 20.75 13H19.25ZM15.7367 5.29775L7.73666 8.29775L8.26334 9.70225L16.2633 6.70225L15.7367 5.29775ZM16.2633 12.7022L24.2633 9.70225L23.7367 8.29775L15.7367 11.2978L16.2633 12.7022ZM15.7367 6.70225L23.7367 9.70225L24.2633 8.29775L16.2633 5.29775L15.7367 6.70225ZM16.2633 11.2978L8.26334 8.29775L7.73666 9.70225L15.7367 12.7022L16.2633 11.2978ZM17.2443 21.5332L18.8328 19.927L17.7663 18.8722L16.1778 20.4785L17.2443 21.5332ZM19.0264 19.8637C21.6994 20.6497 23.25 22.3265 23.25 24H24.75C24.75 21.3393 22.3869 19.2884 19.4496 18.4246L19.0264 19.8637ZM13.1672 19.927L14.7557 21.5332L15.8222 20.4785L14.2337 18.8722L13.1672 19.927ZM8.75 24C8.75 22.3265 10.3006 20.6497 12.9736 19.8637L12.5504 18.4246C9.61309 19.2884 7.25 21.3393 7.25 24H8.75ZM23.25 24V26H24.75V24H23.25ZM7.25 24V26H8.75V24H7.25ZM14.2337 18.8722C13.8103 18.444 13.1711 18.2421 12.5504 18.4246L12.9736 19.8637C13.0226 19.8493 13.0998 19.8589 13.1672 19.927L14.2337 18.8722ZM18.8328 19.927C18.9002 19.8589 18.9774 19.8493 19.0264 19.8637L19.4496 18.4246C18.8289 18.2421 18.1897 18.444 17.7663 18.8722L18.8328 19.927ZM16.1778 20.4785C16.0799 20.5774 15.9201 20.5774 15.8222 20.4785L14.7557 21.5332C15.4407 22.2259 16.5593 22.2259 17.2443 21.5332L16.1778 20.4785Z" fill="#C0C0C0"/>
</svg>
