<svg width="24" height="24" viewBox="0 0 24 24" fill="none" xmlns="http://www.w3.org/2000/svg">
<path fill-rule="evenodd" clip-rule="evenodd" d="M12.75 6.5C12.0596 6.5 11.5 7.05964 11.5 7.75C11.5 8.44036 12.0596 9 12.75 9C13.4404 9 14 8.44036 14 7.75C14 7.05964 13.4404 6.5 12.75 6.5ZM11.5 12.75C11.5 12.0596 12.0596 11.5 12.75 11.5C13.4404 11.5 14 12.0596 14 12.75C14 13.4404 13.4404 14 12.75 14C12.0596 14 11.5 13.4404 11.5 12.75ZM11.5 17.75C11.5 17.0596 12.0596 16.5 12.75 16.5C13.4404 16.5 14 17.0596 14 17.75C14 18.4404 13.4404 19 12.75 19C12.0596 19 11.5 18.4404 11.5 17.75Z" fill="white"/>
</svg>
